<?xml version="1.0" encoding="UTF-8"?>
<svg width="512" height="512" version="1.1" viewBox="0 0 135.47 135.47" xmlns="http://www.w3.org/2000/svg" xmlns:cc="http://creativecommons.org/ns#" xmlns:dc="http://purl.org/dc/elements/1.1/" xmlns:rdf="http://www.w3.org/1999/02/22-rdf-syntax-ns#">
 <metadata>
  <rdf:RDF>
   <cc:Work rdf:about="">
    <dc:format>image/svg+xml</dc:format>
    <dc:type rdf:resource="http://purl.org/dc/dcmitype/StillImage"/>
    <dc:title/>
   </cc:Work>
  </rdf:RDF>
 </metadata>
 <g stroke-width=".26458">
  <text x="18.015881" y="36.380207" font-family="'Vitruvian Man'" font-size="11.289px" style="line-height:1.25" xml:space="preserve"><tspan x="18.015881" y="36.380207" stroke-width=".26458"/></text>
  <text x="20.012068" y="22.451195" font-family="'Vitruvian Man'" font-size="11.289px" style="line-height:1.25" xml:space="preserve"><tspan x="20.012068" y="22.451195" stroke-width=".26458"/></text>
  <g aria-label="M">
   <path d="m55.598 0.89102q2.0025 7.5293 2.0025 8.09l0.80099-0.40049q0 0.1602-0.40049 1.602 1.4418 7.6094 2.0826 7.6094 0.72089-0.40049 1.2015-0.40049v0.80099h-1.2015q0.80099 6.9686 2.0025 10.893 0 0.40049-0.40049 0.40049 0.80099 1.3617 0.80099 2.0025 0 0.40049-0.40049 0.40049 0.96118 7.6895 1.602 7.6895 0 0.40049-0.40049 0.40049 0.96118 7.2089 1.602 7.2089l-0.40049 0.88108v0.40049q1.0413-1.1214 5.2064-11.294 4.8059-8.0099 8.8909-12.095 2.0025-2.2428 3.2039-4.0049 2.8035 2.0025 3.2039 2.0025v0.80099l-0.80099-0.40049h-1.602v0.80099q4.8059 0.80099 6.0875 2.0025 0.0801-0.80099 0.80099-0.80099h0.40049q0 2.403 4.0049 7.2089 1.602 6.8885 2.8035 6.8885h0.40049v1.602h-0.80099q0.48059 2.0025 1.2015 2.0025 0 0.40049-0.40049 0.40049 2.1627 12.575 3.6044 15.699 0 0.80099 2.0025 2.0025l-1.2015 1.6821v0.40049h0.40049l0.80099-0.40049 0.48059 0.80099q-1.3617 0.80099-2.0826 0.80099 0 0.96118 0.80099 3.6044h-0.40049q0.96118 6.4079 1.6821 6.4079-0.48059 8.971-2.4831 16.5h-1.602q-0.40049-2.5632-1.2015-4.4054h0.40049q-0.80099-2.403-1.602-2.403h-0.80099v0.80099l0.40049 2.403q-0.40049 2.0025-0.80099 2.0025l-2.0025-0.40049q-0.40049 0.80099-0.40049 1.2015 0 0.2403 0.80099 6.488 0 3.6044-1.2015 3.6044v3.204q0.0801 2.8034 0.80099 2.8034l-0.40049 0.80099 0.40049 2.0826h0.40049l1.2015-0.80098h0.40049v1.2015q-2.6433 0.80098-3.6044 0.80098h-0.40049v-0.40049q-2.4831-18.983-4.085-18.983 0.88108 0 0.88108-0.80099-0.32039-3.2039-1.2816-3.2039l0.40049-0.80099q-2.4831-15.539-3.2039-17.702-0.64079-0.40049-2.0025-0.40049v-2.0025l-0.40049-0.80099q1.602 0 1.602-1.602-0.80099-6.488-1.602-6.488l0.40049-0.80099q-0.56069-1.602-1.2015-1.602l-1.602 6.4079q0.40049 0 0.40049 0.40049-0.80099 0.40049-1.2015 0.40049v0.88108l-2.8035 9.6118q0 1.7622-4.886 16.5v0.80099q0 0.40049 0.40049 0.40049-2.0025 3.3641-2.0025 3.6845 0 1.602-1.602 1.602v0.80099h0.80099q0 3.2039-2.0025 3.2039 0 0.32039 0.40049 2.403-4.4054 13.136-4.4054 14.097-0.64079 0-2.8035-8.0099h0.40049l-0.80099-2.483q0.80099-1.2816 0.80099-2.403-3.284-5.5268-3.284-8.4104l-0.80099 0.40049 0.40049-2.0025q0-1.6821-1.2015-1.6821l0.40049-1.602q0-0.64079-1.602-5.6069h0.40049q-0.2403-2.403-1.602-2.403l0.80099-1.2015v-0.40049l-2.0025-0.40049v-0.80099q1.2015 0 1.2015-0.40049 0-0.48059-2.0025-13.296h-0.80099q-1.2816 2.3229-2.8035 9.6118h0.40049q-2.0025 6.0875-5.687 20.986-0.40049 0-0.40049 0.40049 0.40049 0 0.40049 0.40049l-0.80099 0.40049 0.40049 0.80099v0.40049l-0.40049 0.80099h0.80099v0.80099q-0.80099 0-2.0025 2.0025h-0.40049q0.40049 0.80098 0.40049 1.2015 0 0.64079-0.80099 3.6044h-0.40049l-0.80099-0.40049 0.40049-0.80098v-2.403q0-0.88109-0.40049-1.602l0.80099-2.8034h-0.80099l-0.40049 2.0025h-0.80099l-0.40049-2.8035v-3.2039q0-0.40049 0.40049-0.40049 0-0.40049-0.40049-0.40049l0.40049-2.4831v-1.602h-0.40049q0 2.9636-1.2015 3.284h-0.40049q0-0.3204-0.40049-2.4831 0-0.80099 1.2015-4.0049l-1.2015-0.80099q-0.88108 0-1.2015 3.6044l-0.80099-0.40049 0.40049 0.80099v1.602h-0.80099v-4.8059l-0.40049-2.8035q0.96118 0 2.0025-4.4054-0.40049 0-0.40049-0.40049 0.40049 0 0.40049-0.40049l-0.80099-0.40049q-0.40049 2.8035-1.2015 2.8035-0.40049-2.1627-0.40049-2.403 0-0.40049 0.80099-4.085h-0.80099l0.40049-0.80099q-0.80099 0-0.80099-0.80099v-0.40049q0-0.56069 1.2015-1.2015 0 0.40049 0.40049 0.40049l2.403-11.694h-0.40049q0.40049-0.72089 2.403-12.015h-0.40049q0.80099-1.602 1.602-8.4905h-0.40049l0.80099-2.403h-0.80099v-0.80099h0.80099v-0.80099q0-1.7622 0.80099-3.284-0.80099-1.4418-0.80099-3.2039l0.80099 0.40049 0.40049-0.80099h-0.80099v-0.80099l0.80099 0.40049h0.40049v-0.40049l-0.40049-2.0025 0.80099 0.40049q0.80099-3.4442 0.80099-4.0049-0.40049 0-0.40049-0.40049 1.3617 0 2.8035-6.0875v-0.40049l-0.40049-0.80099q2.5632-0.40049 8.4905-9.2113 0.40049 0 4.0049-4.4855zm2.403 0.80099v0.40049l-0.40049 0.80099q0.2403 0 1.6821 0.40049 0.72089-0.40049 1.2015-0.40049 0 0.88108 2.403 1.6821v0.40049h-3.2039q-0.40049 0-0.40049-0.40049l-0.88108 0.40049h-0.40049q0-0.72089-1.2015-2.0826v-0.80099q0.48059 0 1.2015-0.40049zm-14.898 9.6919q0.72089 0.40049 2.0826 0.40049v0.40049q-2.8836 0-2.8836 1.2015-0.56069 0-1.2015-1.2015v-0.40049q1.3617 0 2.0025-0.40049zm29.396 0.80099h1.2816q0 0.80099-0.88108 0.80099h-0.40049zm-30.598 1.2015v0.80099q0 0.80099-0.80099 0.80099v-0.80099q0.1602-0.80099 0.80099-0.80099zm-2.403 6.488 2.0025 0.40049v0.80099l-0.80099-0.40049-0.80099 0.40049-0.40049-0.80099zm50.382 0h0.80099q-0.40049 0.72089-0.40049 1.2015 0 0.1602 0.40049 1.602-0.40049 0.80099-0.40049 1.2015h-0.80099l0.40049-0.80099q0-0.88108-0.40049-1.602 0.40049-0.72089 0.40049-1.602zm-50.783 3.6044 0.80099 0.40049q0-0.40049 0.40049-0.40049v1.2015h-1.2015zm53.185 2.403h0.80099q0.80099 0.1602 0.80099 0.80099v0.80099q-0.64079 0-1.602-1.602zm-28.195 3.6044q0 0.56069-1.2015 1.2015l-0.40049-0.80099zm-5.2064 23.789v0.80099q1.602-0.64079 1.602-1.2015l-0.80099-0.40049q-0.80099 0.0801-0.80099 0.80099zm28.115 2.403v1.2015h1.2816v-0.40049q0-0.80099-0.88108-0.80099zm-39.409 2.403q0.0801 0.80099 0.80099 0.80099h0.40049v-0.40049q-0.40049-0.80099-0.40049-1.2015-0.80099 0.1602-0.80099 0.80099zm46.297 11.294v0.80099l0.40049 2.0025q0.80099 0 0.80099-0.80099-0.48059-2.0025-1.2015-2.0025zm-59.593 2.0025v2.0025q0 0.2403-0.80099 1.2015v1.2015q0.96118 0 1.602-4.4054zm5.2064 4.4054v1.2015h0.40049q0.80099 0 0.80099-0.80099l-0.80099-0.40049zm14.498 0.80099-0.40049 0.80099h1.2015q0-0.80099-0.80099-0.80099zm-21.306 0.40049v0.88108h1.2015v-0.88108zm22.107 4.4855-0.40049 0.80099v0.80099q1.602-0.64079 1.602-1.2015-0.40049 0-1.2015-0.40049zm-3.2039 1.2015h1.2015v0.80099h-2.0025q0.1602-0.80099 0.80099-0.80099zm1.602 4.4054h1.2015q-0.40049 0.80099-0.40049 1.2015h-0.80099zm36.685 0.40049v1.2015q0.80099 0 0.80099-0.80099zm-53.986 1.2015 0.80099 0.40049h0.40049v-1.2015h-0.40049q-0.80099 0.1602-0.80099 0.80099zm2.8035 0-0.40049 0.80099h1.2015q0-0.80099-0.80099-0.80099zm18.102 1.2015v0.40049q0.40049 0.80099 0.40049 1.2015h0.40049l0.80099-0.40049q-0.40049-0.72089-0.40049-1.2015zm-4.8059 1.2015 0.80099 0.40049q0-0.40049 0.40049-0.40049v0.80099l-2.0025 0.40049v-0.40049q0.1602-0.80099 0.80099-0.80099zm42.693 1.2015h0.40049q0.80099 0.1602 0.80099 0.88108l-0.80099 0.40049h-0.40049zm-35.003 2.0826v1.2015q0 0.56069 1.2015 1.2015v-0.80099q-0.64079-1.602-1.2015-1.602zm33.802 6.4079h1.2015v0.80098h-0.40049q-0.80099 0-0.80099-0.80098zm11.294 0.80098q-1.9224 3.204-4.886 3.204v-0.40049h-0.80099v0.80098h-0.80099q-0.80099 0-0.80099-0.80098 6.3278-2.8035 7.289-2.8035zm-21.386 0.80099h1.602v0.80099h-1.602zm-20.105 2.403v0.40049l2.0025-0.40049q0-0.80099-0.80099-0.80099h-0.40049q-0.80099 0.1602-0.80099 0.80099zm39.409 0.80099h0.48059v1.602h-1.6821v-0.4005q0-0.56069 1.2015-1.2015zm-37.006 4.886v0.4005q0 0.80098-0.80099 0.80098v-0.40049q0.1602-0.80099 0.80099-0.80099zm27.394 1.602h0.80099q1.2816 9.5317 2.403 12.896l-0.40049 0.80098q1.2015 6.0074 1.2015 6.8084l-0.80099 0.40049h-0.40049q-1.2015-2.1627-3.6044-20.505zm9.2113 0.80099h0.4005q0.88108 0.0801 0.88108 0.80099v0.80098q-0.64079 0-1.2816-1.2015zm-51.103 0.40049 0.40049 0.80099q0 0.80099-0.80099 0.80099l-0.40049-0.80099q0.1602-0.80099 0.80099-0.80099zm52.385 4.0049q-0.40049 0.80098-0.40049 1.2015h-0.48059q-0.80099 0-0.80099-0.80099v-0.40049zm-0.88108 1.602h0.48059v2.0025h-1.2816v-1.2015q0.1602-0.80099 0.80099-0.80099zm-1.2015 6.488h0.40049l0.80099 0.40049q-0.4005 0.64079-0.4005 2.0025h-1.2015zm-15.299 2.8034 2.4831 0.40049q-0.72089 1.602-2.8836 1.602v-1.2015zm8.8909 4.0049q-0.96118 2.403-2.0025 2.403-1.602-0.56069-1.602-1.2015v-0.40049q2.5632-0.80099 3.6044-0.80099z" fill="#000000" stroke-width=".26458"/>
  </g>
 </g>
</svg>
